<?xml version="1.0" standalone="no"?>
<!DOCTYPE svg PUBLIC "-//W3C//DTD SVG 20010904//EN"
 "http://www.w3.org/TR/2001/REC-SVG-20010904/DTD/svg10.dtd">
<svg version="1.0" xmlns="http://www.w3.org/2000/svg"
 width="64.000000pt" height="64.000000pt" viewBox="0 0 64.000000 64.000000"
 preserveAspectRatio="xMidYMid meet">
<metadata>
Created by potrace 1.16, written by Peter Selinger 2001-2019
</metadata>
<g transform="translate(0.000000,64.000000) scale(0.012800,-0.012800)"
fill="#000000" stroke="none">
<path d="M1928 4304 c-109 -26 -172 -72 -203 -149 -10 -22 -24 -48 -33 -57
-14 -17 -12 -18 40 -18 131 0 240 76 294 205 l14 35 -27 -1 c-16 0 -54 -7 -85
-15z"/>
<path d="M2980 4309 c0 -22 70 -117 117 -160 54 -48 92 -63 188 -75 l59 -7
-17 24 c-9 13 -20 31 -23 39 -33 95 -80 140 -168 164 -70 19 -156 28 -156 15z"/>
<path d="M2474 4223 c-70 -149 -94 -203 -94 -208 0 -3 8 -5 18 -5 44 -1 72
-49 72 -123 0 -97 -70 -163 -128 -120 -54 40 -52 125 3 139 25 6 24 7 -22 42
-27 20 -90 71 -142 114 -52 43 -96 76 -98 74 -2 -1 40 -104 93 -228 l96 -224
71 18 c96 25 248 25 344 0 l72 -18 12 25 c21 47 171 386 180 409 8 22 6 21
-37 -10 -25 -18 -91 -71 -146 -117 l-100 -84 29 -12 c38 -16 47 -39 32 -82
-24 -73 -120 -78 -153 -9 -34 72 -11 178 44 199 16 6 30 15 30 20 0 14 -128
277 -134 277 -3 0 -22 -35 -42 -77z"/>
<path d="M3320 4258 c0 -53 26 -148 49 -179 28 -37 27 -39 -13 -28 -25 7 -54
5 -103 -6 -90 -21 -104 -29 -78 -49 85 -65 176 -81 254 -46 24 11 49 20 57 20
19 0 18 81 -2 149 -18 60 -70 123 -126 152 l-38 19 0 -32z"/>
<path d="M1638 4253 c-87 -73 -117 -130 -118 -220 0 -50 3 -63 15 -63 9 0 34
-9 57 -21 31 -16 54 -20 92 -17 53 4 135 39 162 69 14 16 11 18 -38 35 -29 10
-79 18 -110 18 -32 1 -58 1 -58 2 0 1 11 27 25 58 25 57 36 166 16 166 -5 0
-24 -12 -43 -27z"/>
<path d="M1425 4084 c-66 -68 -92 -129 -76 -175 6 -18 11 -45 11 -60 0 -18 5
-29 14 -29 7 0 35 -9 61 -21 41 -18 53 -19 94 -9 52 13 117 48 145 79 18 20
18 21 -10 32 -16 6 -68 12 -115 12 l-87 2 14 27 c33 65 42 198 13 198 -6 0
-35 -25 -64 -56z"/>
<path d="M3510 4078 c0 -43 8 -81 24 -119 l23 -56 -36 9 c-50 14 -191 -9 -191
-31 0 -12 111 -71 165 -86 50 -15 55 -15 96 4 24 11 52 22 63 25 17 6 18 15
14 90 -3 66 -9 92 -30 127 -27 46 -67 81 -106 93 -21 7 -22 5 -22 -56z"/>
<path d="M1256 3934 c-68 -81 -80 -142 -48 -244 l17 -55 73 -4 c63 -3 80 1
127 24 59 29 115 89 98 106 -16 16 -136 12 -177 -5 -48 -20 -49 -20 -37 3 26
49 21 197 -8 215 -4 3 -24 -15 -45 -40z"/>
<path d="M3696 3939 c-9 -48 -7 -135 4 -165 14 -35 8 -39 -29 -19 -37 19 -172
18 -178 -2 -6 -18 55 -80 102 -103 30 -14 61 -21 93 -20 26 1 64 2 84 2 41 0
43 3 54 109 4 44 2 79 -6 104 -13 41 -84 125 -105 125 -7 0 -15 -14 -19 -31z"/>
<path d="M1113 3752 c-68 -103 -76 -148 -38 -235 l27 -62 71 -3 c64 -3 74 0
123 30 30 18 68 49 84 70 l31 37 -26 7 c-42 10 -129 -1 -172 -22 l-40 -20 9
35 c16 55 -7 211 -30 211 -4 0 -21 -21 -39 -48z"/>
<path d="M3849 3779 c-9 -16 -14 -57 -14 -120 l0 -97 -37 19 c-39 20 -172 27
-182 10 -9 -14 73 -100 116 -122 29 -15 56 -19 102 -18 35 1 68 -1 74 -5 8 -5
12 2 12 19 0 14 9 43 20 65 37 73 20 154 -49 239 l-28 35 -14 -25z"/>
<path d="M1763 3690 c-18 -10 -69 -57 -113 -102 -262 -267 -374 -531 -373
-873 1 -326 100 -549 377 -842 53 -55 96 -104 96 -107 0 -16 -60 -3 -90 19
-38 28 -36 28 -54 -27 -9 -29 -26 -20 -26 12 0 55 -43 134 -91 168 -18 12 -21
11 -35 -24 -16 -38 -16 -128 1 -166 7 -17 4 -16 -36 2 -32 14 -66 20 -126 20
-47 0 -83 -4 -83 -10 0 -5 14 -25 30 -43 17 -19 30 -37 30 -40 0 -3 -24 -11
-54 -18 -82 -18 -81 -14 -52 -119 14 -52 25 -95 23 -96 -1 -1 -60 -18 -132
-39 -179 -50 -424 -131 -493 -162 -44 -19 -54 -27 -42 -35 8 -5 78 -43 155
-84 77 -42 145 -81 152 -87 9 -9 1 -52 -33 -177 -24 -91 -43 -170 -42 -176 2
-8 34 1 88 23 161 65 661 203 738 203 11 0 24 4 27 10 3 5 -2 50 -12 99 -9 50
-14 94 -10 97 18 18 410 78 616 94 174 13 466 13 628 -1 243 -20 570 -81 581
-108 3 -8 -2 -51 -11 -95 -19 -91 -18 -91 52 -101 151 -21 555 -137 722 -206
40 -16 73 -28 75 -26 4 3 -40 180 -67 274 -12 39 -19 78 -16 86 3 7 77 51 166
98 88 46 161 86 161 89 0 3 -149 55 -331 115 -182 61 -334 112 -339 115 -4 3
3 46 15 95 24 98 23 100 -35 110 -61 10 -65 18 -26 57 20 20 36 40 36 46 0 26
-154 18 -232 -13 -21 -8 -21 -7 -7 34 13 38 4 130 -16 157 -13 18 -14 18 -34
0 -25 -23 -91 -151 -91 -177 0 -32 -18 -21 -27 17 l-8 37 -30 -25 c-17 -14
-40 -28 -52 -32 -55 -17 -38 12 69 123 182 186 259 300 317 473 41 122 55 214
55 373 1 335 -109 603 -348 841 -134 135 -205 169 -264 128 -30 -21 -31 -95
-2 -124 19 -19 29 -20 93 -14 l72 6 89 -89 c104 -103 161 -175 210 -264 124
-226 151 -597 63 -854 -24 -69 -73 -175 -82 -175 -2 0 6 28 19 63 49 129 61
209 61 407 0 118 -5 207 -13 245 -31 135 -88 269 -130 303 -41 32 -112 -7
-112 -61 0 -44 8 -51 63 -67 52 -14 74 -37 106 -114 69 -159 66 -430 -5 -651
-68 -210 -255 -481 -359 -520 -41 -16 -52 -16 -217 6 -152 21 -214 23 -503 23
-251 1 -370 -4 -497 -18 -195 -21 -179 -26 -286 89 -114 121 -196 253 -247
393 -46 127 -58 207 -59 372 -1 134 2 165 21 225 25 76 77 174 96 180 7 2 24
6 39 9 15 3 34 13 42 22 24 23 20 77 -7 102 -71 67 -147 -25 -202 -242 -47
-184 -43 -438 10 -619 13 -45 22 -83 20 -85 -1 -2 -17 31 -34 73 -53 127 -72
217 -78 365 -8 217 35 388 143 567 86 142 179 256 242 295 28 17 42 19 97 13
92 -9 131 19 118 87 -12 65 -84 88 -150 48z m175 -2087 c2 -9 -10 -13 -42 -13
-44 0 -46 -1 -46 -29 0 -23 5 -30 23 -33 27 -4 26 -22 -3 -26 -17 -3 -20 -11
-20 -52 l0 -49 48 -3 c75 -5 55 -23 -30 -26 l-78 -3 0 126 0 126 72 -3 c46 -2
73 -7 76 -15z m472 -109 l0 -126 -27 5 c-14 3 -39 0 -55 -5 -56 -20 -104 40
-79 100 13 31 58 62 90 62 18 0 21 6 21 38 0 43 5 52 32 52 16 0 18 -10 18
-126z m288 70 c37 -26 29 -66 -20 -108 l-43 -36 43 0 c38 0 42 -2 42 -25 0
-24 -2 -25 -70 -25 -38 0 -70 3 -70 8 0 9 27 50 63 96 38 47 33 71 -16 70 -40
-1 -48 9 -19 25 25 15 64 13 90 -5z m187 -7 c52 -45 42 -152 -17 -183 -78 -40
-155 61 -113 149 27 58 85 73 130 34z m173 7 c35 -24 28 -61 -20 -105 l-43
-39 43 0 c38 0 42 -2 42 -25 0 -24 -2 -25 -70 -25 -51 0 -70 4 -70 13 0 8 20
40 45 72 54 69 55 90 5 90 -39 0 -52 15 -23 26 31 13 67 10 91 -7z"/>
<path d="M997 3573 c-20 -19 -39 -82 -44 -143 -5 -64 -4 -66 36 -119 23 -29
41 -60 41 -69 0 -12 3 -13 12 -4 7 7 29 12 50 12 73 0 143 53 188 141 11 21
20 41 20 45 0 16 -93 -6 -150 -35 -35 -17 -65 -31 -67 -31 -1 0 -3 13 -3 28 0
71 -61 198 -83 175z"/>
<path d="M3987 3557 c-27 -42 -47 -98 -53 -153 l-7 -52 -26 24 c-24 22 -133
64 -167 64 -21 0 -17 -22 15 -71 53 -82 107 -119 175 -119 17 0 37 -5 44 -12
13 -13 12 -15 35 32 9 19 28 55 42 79 16 27 25 60 25 85 0 44 -27 113 -52 134
-13 10 -18 8 -31 -11z"/>
<path d="M901 3343 c-17 -38 -25 -113 -17 -166 6 -36 17 -56 52 -91 24 -25 44
-50 44 -57 0 -8 4 -8 15 1 9 7 38 17 66 21 63 10 102 38 128 92 26 54 37 107
23 107 -28 0 -127 -45 -157 -72 l-34 -29 -7 28 c-19 89 -69 193 -93 193 -4 0
-13 -12 -20 -27z"/>
<path d="M4062 3334 c-30 -37 -62 -118 -62 -160 0 -24 0 -24 -43 9 -42 32
-152 75 -163 64 -11 -11 48 -125 81 -157 40 -39 154 -68 168 -44 5 8 25 31 46
52 29 29 40 49 45 84 10 64 -13 188 -34 188 -5 0 -22 -16 -38 -36z"/>
<path d="M4125 3090 c-22 -27 -54 -74 -71 -104 l-30 -55 -18 30 c-23 39 -101
89 -138 89 -33 0 -33 1 -7 -69 31 -86 67 -132 114 -146 22 -6 50 -18 62 -26
21 -12 25 -11 59 21 20 19 50 55 65 79 25 38 29 55 29 110 -1 37 -6 79 -13 94
l-12 28 -40 -51z"/>
<path d="M829 3088 c-16 -62 2 -135 51 -197 44 -56 93 -97 98 -82 2 5 25 17
51 26 66 22 98 59 126 146 13 41 22 75 20 77 -2 2 -22 -2 -45 -8 -53 -14 -95
-44 -126 -89 l-23 -34 -7 29 c-12 51 -42 99 -83 137 -23 20 -43 37 -46 37 -2
0 -9 -19 -16 -42z"/>
<path d="M814 2886 c-11 -45 3 -133 28 -178 13 -23 39 -52 58 -64 19 -12 44
-30 55 -41 19 -17 21 -17 38 0 9 9 27 17 40 17 26 0 67 39 90 85 15 31 40 145
33 152 -7 7 -81 -34 -115 -63 -17 -14 -39 -40 -47 -56 l-15 -29 -25 48 c-26
52 -40 69 -97 122 l-36 34 -7 -27z"/>
<path d="M4133 2856 c-28 -30 -61 -76 -74 -102 l-22 -47 -19 36 c-20 41 -66
79 -122 102 l-38 16 6 -48 c15 -101 89 -203 149 -203 10 0 21 -9 24 -20 3 -11
8 -20 12 -20 3 0 36 29 72 64 75 73 96 122 84 203 -10 79 -16 80 -72 19z"/>
<path d="M2028 2868 c-32 -11 -52 -56 -43 -96 3 -17 24 -61 47 -98 49 -81 55
-137 13 -121 -8 4 -15 18 -15 32 0 23 -4 26 -27 23 -25 -3 -28 -7 -25 -33 6
-52 28 -75 70 -75 43 0 55 7 71 37 20 39 12 77 -34 153 -45 75 -58 130 -31
130 8 0 17 -12 20 -26 5 -18 12 -24 22 -20 9 3 20 6 25 6 13 0 11 27 -6 59
-16 32 -47 42 -87 29z"/>
<path d="M2394 2870 c-44 -17 -49 -35 -49 -185 0 -126 2 -145 19 -164 12 -13
31 -21 50 -21 65 0 76 27 76 187 0 81 -5 137 -13 152 -14 28 -52 42 -83 31z"/>
<path d="M2894 2870 c-44 -17 -49 -35 -49 -185 0 -126 2 -145 19 -164 12 -13
31 -21 50 -21 65 0 76 27 76 187 0 81 -5 137 -13 152 -14 28 -52 42 -83 31z"/>
<path d="M1620 2862 c0 -10 38 -288 45 -329 4 -23 11 -33 24 -33 21 0 27 16
37 108 3 34 10 62 14 62 4 0 11 -28 14 -62 10 -92 16 -108 37 -108 11 0 21 9
24 23 5 22 45 323 45 339 0 4 -11 8 -24 8 -23 0 -25 -5 -31 -67 -4 -38 -10
-84 -14 -103 -7 -31 -8 -28 -14 35 -12 117 -17 135 -37 135 -15 0 -20 -11 -26
-57 -3 -32 -10 -78 -13 -103 l-7 -45 -7 60 c-19 149 -17 145 -43 145 -13 0
-24 -3 -24 -8z"/>
<path d="M1890 2685 l0 -185 25 0 25 0 0 185 0 185 -25 0 -25 0 0 -185z"/>
<path d="M2160 2685 l0 -185 44 0 c33 0 52 6 73 24 l28 24 0 137 0 137 -28 24
c-21 18 -40 24 -73 24 l-44 0 0 -185z"/>
<path d="M2530 2686 l0 -186 25 0 25 0 1 108 1 107 17 -104 c18 -116 36 -140
47 -64 3 26 12 80 19 118 l13 70 1 -117 1 -118 25 0 25 0 0 185 0 185 -34 0
c-31 0 -34 -3 -41 -37 -3 -21 -12 -60 -18 -88 l-11 -50 -16 85 c-16 84 -16 85
-48 88 l-32 3 0 -185z"/>
<path d="M3065 2848 c-2 -13 -14 -86 -25 -163 -11 -77 -22 -150 -25 -162 -5
-20 -1 -23 24 -23 27 0 30 3 33 38 3 32 7 37 29 40 24 3 27 -1 33 -37 5 -36
10 -41 32 -41 24 0 26 3 21 33 -4 17 -16 101 -28 185 l-23 152 -33 0 c-26 0
-34 -5 -38 -22z"/>
<path d="M3220 2685 l0 -185 25 0 c24 0 25 2 25 68 0 67 14 113 24 82 2 -8 7
-28 11 -45 20 -93 25 -105 50 -105 14 0 25 2 25 5 0 3 -12 58 -27 122 -28 126
-29 118 14 231 3 7 -4 12 -20 12 -21 0 -28 -9 -48 -62 l-24 -63 -3 63 c-3 58
-4 62 -27 62 l-25 0 0 -185z"/>
<path d="M1101 2628 c-23 -24 -51 -64 -63 -91 l-22 -47 -30 36 c-28 34 -138
114 -158 114 -15 0 -8 -74 11 -115 24 -51 60 -84 142 -129 l66 -36 16 23 c8
13 29 29 45 36 37 15 57 76 57 168 0 86 -12 94 -64 41z"/>
<path d="M3854 2644 c-10 -41 1 -156 19 -191 9 -17 27 -35 38 -38 12 -4 32
-18 44 -31 l22 -23 76 44 c99 58 130 98 135 176 3 34 0 59 -5 59 -18 0 -102
-61 -146 -106 l-44 -44 -11 38 c-12 40 -70 115 -103 132 -15 9 -20 6 -25 -16z"/>
<path d="M1161 2433 c-33 -40 -71 -114 -71 -138 0 -22 -7 -19 -45 24 -36 39
-158 111 -170 99 -9 -9 14 -88 37 -126 25 -41 93 -88 160 -111 l52 -17 48 48
c48 48 48 48 48 116 0 79 -9 142 -21 142 -4 0 -21 -17 -38 -37z"/>
<path d="M3795 2415 c-12 -94 21 -199 70 -225 14 -8 23 -20 21 -27 -7 -17 -7
-17 69 12 89 33 121 58 150 115 29 57 43 130 26 130 -26 0 -117 -54 -162 -97
-48 -45 -49 -45 -49 -19 0 15 -9 44 -20 65 -20 40 -75 101 -90 101 -5 0 -12
-25 -15 -55z"/>
<path d="M1236 2260 c-28 -34 -48 -94 -50 -152 l-1 -36 -31 28 c-42 37 -204
100 -204 79 0 -22 45 -102 72 -130 38 -38 69 -53 138 -69 30 -6 63 -14 73 -17
11 -3 17 1 17 13 0 9 14 32 30 51 26 29 30 42 30 90 0 59 -27 173 -40 173 -5
0 -20 -14 -34 -30z"/>
<path d="M3727 2243 c-35 -111 -27 -186 24 -239 29 -30 31 -30 94 -23 78 10
112 26 155 75 32 37 76 121 68 130 -9 8 -115 -29 -174 -61 l-62 -33 -4 53 c-4
41 -12 64 -39 99 -19 25 -37 46 -41 46 -3 0 -13 -21 -21 -47z"/>
<path d="M1334 2059 c-18 -36 -27 -71 -28 -106 0 -29 -2 -53 -3 -53 -1 0 -23
13 -48 29 -49 31 -156 57 -180 44 -13 -7 -7 -20 30 -73 51 -72 73 -85 160 -95
33 -3 72 -8 88 -11 22 -5 27 -2 27 13 0 11 11 30 25 43 21 19 25 33 25 76 0
56 -31 154 -55 174 -11 9 -19 2 -41 -41z"/>
<path d="M3625 2076 c-39 -60 -47 -170 -15 -226 10 -19 22 -43 26 -52 4 -13
14 -15 42 -11 122 17 215 66 256 136 14 24 26 47 26 50 0 24 -148 -14 -205
-52 l-42 -28 0 51 c1 57 -37 156 -59 156 -7 0 -21 -11 -29 -24z"/>
</g>
</svg>
