<?xml version="1.0" standalone="no"?>
<!DOCTYPE svg PUBLIC "-//W3C//DTD SVG 20010904//EN"
 "http://www.w3.org/TR/2001/REC-SVG-20010904/DTD/svg10.dtd">
<svg version="1.0" xmlns="http://www.w3.org/2000/svg"
 width="48.000000pt" height="48.000000pt" viewBox="0 0 48.000000 48.000000"
 preserveAspectRatio="xMidYMid meet">
<metadata>
Created by potrace 1.16, written by Peter Selinger 2001-2019
</metadata>
<g transform="translate(0.000000,48.000000) scale(0.009524,-0.009524)"
fill="#000000" stroke="none">
<path d="M1531 1763 l-1 -53 -52 0 c-29 1 -64 7 -78 15 -46 27 -60 20 -60 -29
l0 -45 -56 -12 c-55 -12 -56 -13 -50 -43 4 -17 9 -63 12 -103 l7 -72 -44 -11
c-200 -53 -548 -166 -538 -174 2 -2 38 -21 79 -43 158 -85 150 -78 150 -141 0
-34 -12 -97 -30 -156 -17 -55 -30 -100 -30 -101 0 -1 53 15 118 37 127 44 473
134 552 144 l49 6 -6 103 c-5 87 -4 103 10 108 22 8 220 43 352 61 176 25 363
36 615 36 309 0 540 -21 725 -64 33 -8 95 -22 138 -32 l78 -18 -2 -100 -3
-101 35 -6 c150 -27 419 -98 581 -153 54 -19 98 -29 98 -24 0 6 -14 58 -30
116 -19 66 -30 122 -28 150 l3 44 116 61 115 61 -285 97 -286 96 0 59 c0 32 4
77 8 100 l8 41 -43 9 c-43 9 -43 9 -46 58 -3 44 -5 47 -25 41 -12 -4 -52 -9
-89 -12 l-68 -5 0 53 c0 59 -10 56 -29 -9 l-12 -44 -117 7 c-64 4 -121 11
-126 16 -6 5 -37 9 -70 9 -34 0 -131 9 -216 20 -205 27 -502 35 -710 21 -91
-7 -225 -15 -297 -18 -73 -3 -133 -10 -133 -14 0 -5 -34 -9 -75 -9 -43 0 -75
-4 -75 -10 0 -6 -27 -10 -60 -10 -59 0 -60 1 -61 28 0 15 -4 36 -9 47 -6 15
-9 6 -9 -32z m469 -113 l0 -41 63 3 c53 3 63 6 72 26 8 19 17 22 62 22 52 0
53 0 53 -31 0 -29 2 -30 38 -27 36 3 37 4 40 46 l3 43 72 -3 72 -3 3 -166 c3
-195 23 -172 -164 -191 -97 -9 -127 -9 -152 1 -28 12 -86 15 -319 20 l-83 1 0
170 0 170 120 0 120 0 0 -40z m1100 -9 c0 -5 32 -6 70 -3 l70 5 0 -150 0 -150
-202 -5 c-112 -2 -267 -3 -345 0 l-143 5 0 54 c0 30 7 67 15 83 9 17 11 30 5
30 -6 0 -10 26 -10 60 0 45 4 61 17 69 21 11 523 13 523 2z"/>
</g>
</svg>
